<?xml version="1.0" encoding="UTF-8"?>
<svg data-bbox="-0.004 0.003 555.266 421.707" viewBox="0 0 555.26 421.71" xmlns="http://www.w3.org/2000/svg" data-type="color">
    <g>
        <path d="M345.66.05a27 27 0 0 0-28.58 27.45l1.33 69.23a121.54 121.54 0 0 0-14-2.07q-1.89-5.66-4.45-11.35c-.34-.76-.72-1.5-1.12-2.21C252.99.1 157.64-6.71 15.41 60.8A27 27 0 0 0 3.62 98.7L148.1 348.1a27 27 0 0 0 35.92 10.36l68.63-36.09-3.62 71a27 27 0 0 0 26.93 28.34 27.43 27.43 0 0 0 4.33-.35l39.94-6.49a27 27 0 0 0 15.29-8.15c.35 0 .7-.09 1-.15l33.49-5.57.72 1.42a26.86 26.86 0 0 0 24 14.72h1.52l28.13-1.59a26.86 26.86 0 0 0 24.71-20.6l25.58-105.15a27 27 0 0 0-26.57-33.33h-1.78l-7.81-45.88c37.09 4.1 65.16-1.1 85.43-15.75 18.43-13.32 28.93-33.18 31.22-59.07a24.43 24.43 0 0 0 .1-2.57C554.55 53.23 484.04 8.44 345.66.05zM306.8 182.96c-.06.67-.07.87-1.42 1.88-1.75 1.32-3.42 2-6.83 1.72s-5.07-1.32-6.53-2.87c-1.16-1.23-1.14-1.43-1.08-2.09s.07-.86 1.43-1.88a8.2 8.2 0 0 1 5.45-1.77c.47 0 1 0 1.47.07 3.4.29 4.93 1.27 6.42 2.85 1.16 1.23 1.15 1.44 1.09 2.09z" fill="#69283e" data-color="1"/>
        <path d="M344.79 14.36a12.65 12.65 0 0 0-13.41 12.87l1.72 88.9a103.24 103.24 0 0 0-30.58-7.25c-3-.27-6.08-.4-9.09-.42a101.6 101.6 0 0 0-6.53-19.26c-.16-.35-.34-.7-.53-1C244.9 14.88 155.8 10.03 21.56 73.8a12.64 12.64 0 0 0-5.52 17.77l144.47 249.4a12.65 12.65 0 0 0 16.83 4.83l73.72-38.77a12.66 12.66 0 0 0 4-19l-7.83-9.92a97.65 97.65 0 0 0 22.11 8.53 12.48 12.48 0 0 0-.75 3.68l-5.3 103.82a12.68 12.68 0 0 0 14.67 13.14l39.95-6.5a12.64 12.64 0 0 0 10.07-8.83 12.64 12.64 0 0 0 6.2.54l35.78-6a12.65 12.65 0 0 0 6.94-3.61l6.65 13a12.66 12.66 0 0 0 11.27 6.9h.71l28.13-1.59a12.65 12.65 0 0 0 11.58-9.66l25.5-105.13a12.68 12.68 0 0 0-2.4-10.87 12.48 12.48 0 0 0-10.06-4.73l-15.47.19a12.64 12.64 0 0 0 .43-5.93l-12.17-71.5c43.09 7.82 74.1 4.4 94.47-10.32 14.91-10.78 23.44-27.15 25.34-48.67 0-.41.05-.81.05-1.22-.63-71.12-66.62-111.15-196.14-118.99zm-145.15 203.3l-1-1.3.72-.24c.07.51.17 1.03.28 1.54zm-5.41-104.77c-2.7 3-13.37 11.45-53.14 23.08l-7.25-9.17c39.12-17.2 56.02-17.11 60.39-13.91zm216.28-5.19l-.91-5.25c28.84 2.71 40.55 7.5 45.17 10.44-5.88.61-18.44.32-44.26-5.19zm-133.85 72.67c.43-5 2.62-8.75 7.1-12.11a22.47 22.47 0 0 1 14.07-4.65c.87 0 1.77 0 2.69.12a23 23 0 0 1 15.64 7.32c3.83 4.09 5.35 8.14 4.92 13.15-.43 5-2.62 8.74-7.1 12.11a23 23 0 0 1-16.66 4.49c-6.57-.57-11.57-2.9-15.74-7.33-3.84-4.04-5.35-8.09-4.92-13.1zm115.45 102.29l-1 9.34-7.65-13 9.48.2a12.74 12.74 0 0 0-.83 3.46z" fill="#bc2944" data-color="2"/>
        <path d="M212.6 190.8a68.75 68.75 0 0 1 14.16-41.55 65 65 0 0 0-11.05 37c0 1.12 0 2.22.09 3.32q1.4 23.88 19.47 43.14 21.92 23.34 55.59 26.25c1 .09 2 .14 3 .2s2.2.06 3.31.06q33.7 0 57.55-21.37t23.85-51.6q0-30.23-23.85-51.6c-2.14-1.91-4.36-3.65-6.61-5.31v.78q-18.89-14.32-44.7-16.55a95 95 0 0 0-18.81.2 79.26 79.26 0 0 0-7.26-27.29q-56.7-100.2-248.38-9.21l144.47 249.4 73.72-38.77-68.05-86.27a349.34 349.34 0 0 0 33.5-10.83zm53.43-19.43q1.11-12.87 12.11-21.14a37.83 37.83 0 0 1 49.21 4.25q9.44 10 8.32 22.9t-12.11 21.13a37.82 37.82 0 0 1-49.22-4.24q-9.38-10.02-8.31-22.9zm-127.62-28.83l-22.45-28.33q76.34-36.84 91.36-15.83t-68.91 44.16z" fill="#fafcfd" data-color="3"/>
        <path d="M346.01 19.08l2.11 109.29a91.32 91.32 0 0 1 11.84 8.95q25.28 22.65 25.28 54.69t-25.28 54.69a92.16 92.16 0 0 1-9.36 7.36l.07 3.64 65.45 1.4v16.84l-9.4.12-4.93 47.58-30-50.89-35.59 3-.34 16.24h-21.4l-.41-10.53-30.8 1.53-5.29 103.81 39.95-6.5-3.45-88.3h21.36l-1.68 80 35.73-5.94-3-42.38 29.9 58.53 28.19-1.55 25.48-105.15-34.35.43V259.1l6.68.14-15.29-89.8q116.48 27.36 122.78-43.92-.84-95.32-184.25-106.44zm55.47 91.22l-5.14-29.5q73.29 4 75.84 25.24t-70.7 4.26z" fill="#fafcfd" data-color="3"/>
    </g>
</svg>
